<?xml version="1.0" encoding="UTF-8"?>
<svg width="700pt" height="700pt" version="1.1" viewBox="0 0 700 700" xmlns="http://www.w3.org/2000/svg">
 <g fill-rule="evenodd">
  <path d="m437.5 297.5c0-9.6641 7.8359-17.5 17.5-17.5s17.5 7.8359 17.5 17.5v105c0 28.996-23.504 52.5-52.5 52.5h-192.5c-28.996 0-52.5-23.504-52.5-52.5v-192.5c0-28.996 23.504-52.5 52.5-52.5h105c9.6641 0 17.5 7.8359 17.5 17.5s-7.8359 17.5-17.5 17.5h-105c-9.6641 0-17.5 7.8359-17.5 17.5v192.5c0 9.6641 7.8359 17.5 17.5 17.5h192.5c9.6641 0 17.5-7.8359 17.5-17.5z"/>
  <path d="m490 140h-87.5c-9.6641 0-17.5-7.8359-17.5-17.5s7.8359-17.5 17.5-17.5h105c9.6641 0 17.5 7.8359 17.5 17.5v105c0 9.6641-7.8359 17.5-17.5 17.5s-17.5-7.8359-17.5-17.5z"/>
  <path d="m327.38 327.38c-6.8359 6.832-17.914 6.832-24.75 0-6.832-6.8359-6.832-17.914 0-24.75l192.5-192.5c6.8359-6.832 17.914-6.832 24.75 0 6.832 6.8359 6.832 17.914 0 24.75z"/>
 </g>
</svg>
